<mxfile host="65bd71144e">
    <diagram name="多智能体协同检修策略生成架构图" id="multi-agent-network">
        <mxGraphModel dx="770" dy="534" grid="1" gridSize="10" guides="1" tooltips="1" connect="1" arrows="1" fold="1" page="1" pageScale="1" pageWidth="1400" pageHeight="900" math="0" shadow="0">
            <root>
                <mxCell id="0"/>
                <mxCell id="1" parent="0"/>
                <mxCell id="central_coordinator" value="" style="ellipse;whiteSpace=wrap;html=1;aspect=fixed;fillColor=#0D47A1;strokeColor=#FFFFFF;strokeWidth=3;gradientColor=#1976D2;" parent="1" vertex="1">
                    <mxGeometry x="650" y="350" width="100" height="100" as="geometry"/>
                </mxCell>
                <mxCell id="coordinator_label" value="协调控制&#xa;智能体" style="text;html=1;strokeColor=none;fillColor=none;align=center;verticalAlign=middle;whiteSpace=wrap;rounded=0;fontSize=12;fontStyle=1;fontColor=#FFFFFF;" parent="1" vertex="1">
                    <mxGeometry x="665" y="385" width="70" height="30" as="geometry"/>
                </mxCell>
                <mxCell id="fault_agent" value="" style="ellipse;whiteSpace=wrap;html=1;aspect=fixed;fillColor=#2E7D32;strokeColor=#FFFFFF;strokeWidth=2;gradientColor=#4CAF50;" parent="1" vertex="1">
                    <mxGeometry x="480" y="200" width="80" height="80" as="geometry"/>
                </mxCell>
                <mxCell id="fault_label" value="故障分析&#xa;智能体" style="text;html=1;strokeColor=none;fillColor=none;align=center;verticalAlign=middle;whiteSpace=wrap;rounded=0;fontSize=11;fontStyle=1;fontColor=#FFFFFF;" parent="1" vertex="1">
                    <mxGeometry x="495" y="225" width="50" height="30" as="geometry"/>
                </mxCell>
                <mxCell id="resource_agent" value="" style="ellipse;whiteSpace=wrap;html=1;aspect=fixed;fillColor=#E65100;strokeColor=#FFFFFF;strokeWidth=2;gradientColor=#FF9800;" parent="1" vertex="1">
                    <mxGeometry x="820" y="200" width="80" height="80" as="geometry"/>
                </mxCell>
                <mxCell id="resource_label" value="资源调度&#xa;智能体" style="text;html=1;strokeColor=none;fillColor=none;align=center;verticalAlign=middle;whiteSpace=wrap;rounded=0;fontSize=11;fontStyle=1;fontColor=#FFFFFF;" parent="1" vertex="1">
                    <mxGeometry x="835" y="225" width="50" height="30" as="geometry"/>
                </mxCell>
                <mxCell id="strategy_agent" value="" style="ellipse;whiteSpace=wrap;html=1;aspect=fixed;fillColor=#C62828;strokeColor=#FFFFFF;strokeWidth=2;gradientColor=#F44336;" parent="1" vertex="1">
                    <mxGeometry x="650" y="580" width="80" height="80" as="geometry"/>
                </mxCell>
                <mxCell id="strategy_label" value="策略生成&#xa;智能体" style="text;html=1;strokeColor=none;fillColor=none;align=center;verticalAlign=middle;whiteSpace=wrap;rounded=0;fontSize=11;fontStyle=1;fontColor=#FFFFFF;" parent="1" vertex="1">
                    <mxGeometry x="665" y="605" width="50" height="30" as="geometry"/>
                </mxCell>
                <mxCell id="knowledge_service" value="" style="hexagon;whiteSpace=wrap;html=1;aspect=fixed;fillColor=#455A64;strokeColor=#FFFFFF;strokeWidth=2;gradientColor=#607D8B;" parent="1" vertex="1">
                    <mxGeometry x="450" y="350" width="80" height="80" as="geometry"/>
                </mxCell>
                <mxCell id="knowledge_label" value="知识服务&#xa;节点" style="text;html=1;strokeColor=none;fillColor=none;align=center;verticalAlign=middle;whiteSpace=wrap;rounded=0;fontSize=11;fontStyle=1;fontColor=#FFFFFF;" parent="1" vertex="1">
                    <mxGeometry x="465" y="375" width="50" height="30" as="geometry"/>
                </mxCell>
                <mxCell id="decision_service" value="" style="hexagon;whiteSpace=wrap;html=1;aspect=fixed;fillColor=#455A64;strokeColor=#FFFFFF;strokeWidth=2;gradientColor=#607D8B;" parent="1" vertex="1">
                    <mxGeometry x="870" y="350" width="80" height="80" as="geometry"/>
                </mxCell>
                <mxCell id="decision_label" value="决策支持&#xa;节点" style="text;html=1;strokeColor=none;fillColor=none;align=center;verticalAlign=middle;whiteSpace=wrap;rounded=0;fontSize=11;fontStyle=1;fontColor=#FFFFFF;" parent="1" vertex="1">
                    <mxGeometry x="885" y="375" width="50" height="30" as="geometry"/>
                </mxCell>
                <mxCell id="connect1" style="edgeStyle=none;rounded=0;orthogonalLoop=1;jettySize=auto;html=1;strokeColor=#2196F3;strokeWidth=3;endArrow=none;startArrow=classic;startFill=1;endFill=0;" parent="1" source="fault_agent" target="central_coordinator" edge="1">
                    <mxGeometry relative="1" as="geometry">
                        <Array as="points">
                            <mxPoint x="550" y="300"/>
                            <mxPoint x="650" y="320"/>
                        </Array>
                    </mxGeometry>
                </mxCell>
                <mxCell id="connect2" style="edgeStyle=none;rounded=0;orthogonalLoop=1;jettySize=auto;html=1;strokeColor=#2196F3;strokeWidth=3;endArrow=none;startArrow=classic;startFill=1;endFill=0;" parent="1" source="resource_agent" target="central_coordinator" edge="1">
                    <mxGeometry relative="1" as="geometry">
                        <Array as="points">
                            <mxPoint x="800" y="300"/>
                            <mxPoint x="750" y="320"/>
                        </Array>
                    </mxGeometry>
                </mxCell>
                <mxCell id="connect4" style="edgeStyle=none;rounded=0;orthogonalLoop=1;jettySize=auto;html=1;strokeColor=#2196F3;strokeWidth=3;endArrow=none;startArrow=classic;startFill=1;endFill=0;" parent="1" source="strategy_agent" target="central_coordinator" edge="1">
                    <mxGeometry relative="1" as="geometry">
                        <Array as="points">
                            <mxPoint x="700" y="550"/>
                            <mxPoint x="700" y="480"/>
                        </Array>
                    </mxGeometry>
                </mxCell>
                <mxCell id="connect5" style="edgeStyle=none;rounded=0;orthogonalLoop=1;jettySize=auto;html=1;strokeColor=#607D8B;strokeWidth=2;endArrow=classic;startArrow=none;dashed=1;" parent="1" source="knowledge_service" target="central_coordinator" edge="1">
                    <mxGeometry relative="1" as="geometry"/>
                </mxCell>
                <mxCell id="connect6" style="edgeStyle=none;rounded=0;orthogonalLoop=1;jettySize=auto;html=1;strokeColor=#607D8B;strokeWidth=2;endArrow=classic;startArrow=none;dashed=1;" parent="1" source="central_coordinator" target="decision_service" edge="1">
                    <mxGeometry relative="1" as="geometry"/>
                </mxCell>
                <mxCell id="collab1" style="edgeStyle=none;rounded=1;orthogonalLoop=1;jettySize=auto;html=1;strokeColor=#FF5722;strokeWidth=2;endArrow=none;startArrow=none;curved=1;opacity=60;" parent="1" source="fault_agent" target="resource_agent" edge="1">
                    <mxGeometry relative="1" as="geometry"/>
                </mxCell>
                <mxCell id="collab2" style="edgeStyle=none;rounded=1;orthogonalLoop=1;jettySize=auto;html=1;strokeColor=#FF5722;strokeWidth=2;endArrow=none;startArrow=none;curved=1;opacity=60;" parent="1" source="fault_agent" target="strategy_agent" edge="1">
                    <mxGeometry relative="1" as="geometry"/>
                </mxCell>
                <mxCell id="collab3" style="edgeStyle=none;rounded=1;orthogonalLoop=1;jettySize=auto;html=1;strokeColor=#FF5722;strokeWidth=2;endArrow=none;startArrow=none;curved=1;opacity=60;" parent="1" source="resource_agent" target="strategy_agent" edge="1">
                    <mxGeometry relative="1" as="geometry"/>
                </mxCell>
            </root>
        </mxGraphModel>
    </diagram>
</mxfile>